<svg width="200" height="300" viewBox="0 0 200 300" fill="none" xmlns="http://www.w3.org/2000/svg">
  <!-- Halo -->
  <circle cx="100" cy="70" r="45" stroke="#949499" stroke-width="3" />
  
  <!-- Veil / Mantle -->
  <path d="M55 90C40 120 30 180 35 220C40 260 55 280 65 290" stroke="#949499" stroke-width="4" stroke-linecap="round"/>
  <path d="M145 90C160 120 170 180 165 220C160 260 145 280 135 290" stroke="#949499" stroke-width="4" stroke-linecap="round"/>
  <path d="M100 55C80 55 65 70 65 100C65 130 80 180 80 180L100 180L120 180C120 180 135 130 135 100C135 70 120 55 100 55Z" stroke="#949499" stroke-width="3" stroke-linejoin="round"/>
  
  <!-- Face -->
  <path d="M85 85C85 95 90 105 100 105C110 105 115 95 115 85" stroke="#949499" stroke-width="2" stroke-linecap="round"/>
  <!-- Eyes -->
  <path d="M88 88C90 90 92 88 92 88" stroke="#949499" stroke-width="2" stroke-linecap="round"/>
  <path d="M108 88C110 90 112 88 112 88" stroke="#949499" stroke-width="2" stroke-linecap="round"/>
  <!-- Mouth -->
  <path d="M98 98C100 99 102 98 102 98" stroke="#949499" stroke-width="1.5" stroke-linecap="round"/>
  
  <!-- Hands -->
  <path d="M100 130L92 150L100 175L108 150L100 130Z" fill="none" stroke="#949499" stroke-width="3" stroke-linejoin="round"/>
  <path d="M100 130V175" stroke="#949499" stroke-width="2"/>

  <!-- Lower Body / Tunic -->
  <path d="M80 180L75 220L85 280" stroke="#949499" stroke-width="3" stroke-linecap="round"/>
  <path d="M120 180L125 220L115 280" stroke="#949499" stroke-width="3" stroke-linecap="round"/>

  <!-- Heart with Rays -->
  <path d="M100 235C100 235 90 225 85 225C80 225 78 228 78 232C78 238 100 250 100 250C100 250 122 238 122 232C122 228 120 225 115 225C110 225 100 235 100 235Z" fill="#949499"/>
  
  <g stroke="#949499" stroke-width="2" stroke-linecap="round">
    <line x1="100" y1="215" x2="100" y2="210"/>
    <line x1="115" y1="220" x2="120" y2="215"/>
    <line x1="125" y1="235" x2="132" y2="235"/>
    <line x1="115" y1="250" x2="120" y2="255"/>
    <line x1="85" y1="220" x2="80" y2="215"/>
    <line x1="75" y1="235" x2="68" y2="235"/>
    <line x1="85" y1="250" x2="80" y2="255"/>
  </g>
</svg>